<svg width="24" height="24" viewBox="0 0 24 24" fill="none" xmlns="http://www.w3.org/2000/svg">
<g id="Filled / menu">
<g id="Icon">
<path fill-rule="evenodd" clip-rule="evenodd" d="M3.59961 6.00005C3.59961 5.33731 4.13687 4.80005 4.79961 4.80005H19.1996C19.8624 4.80005 20.3996 5.33731 20.3996 6.00005C20.3996 6.66279 19.8624 7.20005 19.1996 7.20005H4.79961C4.13687 7.20005 3.59961 6.66279 3.59961 6.00005Z" fill="#BDC1C6"/>
<path fill-rule="evenodd" clip-rule="evenodd" d="M3.59961 12C3.59961 11.3373 4.13687 10.8 4.79961 10.8H19.1996C19.8624 10.8 20.3996 11.3373 20.3996 12C20.3996 12.6628 19.8624 13.2 19.1996 13.2H4.79961C4.13687 13.2 3.59961 12.6628 3.59961 12Z" fill="#BDC1C6"/>
<path fill-rule="evenodd" clip-rule="evenodd" d="M3.59961 18C3.59961 17.3373 4.13687 16.8 4.79961 16.8H19.1996C19.8624 16.8 20.3996 17.3373 20.3996 18C20.3996 18.6628 19.8624 19.2 19.1996 19.2H4.79961C4.13687 19.2 3.59961 18.6628 3.59961 18Z" fill="#BDC1C6"/>
</g>
</g>
</svg>
