<svg width="25" height="26" viewBox="0 0 25 26" fill="none" xmlns="http://www.w3.org/2000/svg">
<path d="M9.79932 24.484L14.7343 15.6715L20.132 15.6715C22.4453 15.6715 24.373 14.3496 24.7586 13.0278C24.373 11.7059 22.4453 10.384 20.132 10.384L14.7343 10.384L9.79933 1.57149C9.49089 1.04274 9.02823 0.866489 8.56557 1.04274L7.9487 1.21899C7.40893 1.48336 7.10049 2.01212 7.1776 2.62899L8.56557 10.384L4.7101 11.2653L2.39682 8.6215L0.854627 8.6215L1.62572 13.0278L0.854626 17.434H2.39682L4.7101 14.7903L8.56557 15.6715L7.1776 23.4265C7.10049 24.0434 7.40893 24.5721 7.9487 24.8365L8.48846 25.1009C9.02823 25.189 9.49089 25.0128 9.79932 24.484Z" fill="#2164B3"/>
</svg>
