<svg width="1920" height="1080" viewBox="0 0 1920 1080" fill="none" xmlns="http://www.w3.org/2000/svg">
<g clip-path="url(#clip0_218_411)">
<g clip-path="url(#clip1_218_411)">
<path fill-rule="evenodd" clip-rule="evenodd" d="M-104 -44H2161V1266H-104V-44ZM999.407 534.449H920.148C923.706 516.077 940.174 502.184 959.945 502.184C979.716 502.184 995.992 515.916 999.676 534.126C999.708 534.29 999.58 534.446 999.407 534.446V534.449ZM952.258 540.706C958.086 541.754 964.184 545.072 966.413 550.669H966.415C970.269 560.185 964.332 570.75 958.963 577.329C957.946 578.576 956.806 579.772 955.632 580.871C955.235 581.241 954.917 581.3 954.503 581.247C934.705 578.643 919.438 562.01 919.438 541.894C919.438 540.432 919.514 538.995 919.679 537.576C922.166 537.766 924.658 537.932 927.15 538.097H927.152L927.167 538.098L927.169 538.099C935.568 538.657 943.98 539.215 952.258 540.706ZM895.139 534.449C894.528 534.449 894.445 534.863 894.445 535.021C894.445 535.441 894.684 535.626 895.051 535.656L919.673 537.579C919.786 536.521 919.945 535.478 920.145 534.452H895.139V534.449ZM958.388 581.261L999.818 536.94C999.927 536.822 1000.13 536.884 1000.15 537.045C1000.35 538.636 1000.45 540.253 1000.45 541.895C1000.45 563.827 982.317 581.605 959.945 581.605C959.468 581.605 958.994 581.594 958.522 581.578C958.358 581.573 958.275 581.379 958.388 581.261Z" fill="white"/>
</g>
</g>
<defs>
<clipPath id="clip0_218_411">
<rect width="1920" height="1080" fill="white"/>
</clipPath>
<clipPath id="clip1_218_411">
<rect width="1920" height="1080" fill="white"/>
</clipPath>
</defs>
</svg>
