<svg width="3000" height="3000" viewBox="0 0 3000 3000" fill="none" xmlns="http://www.w3.org/2000/svg">
<g clip-path="url(#clip0_603_450)">
<mask id="mask0_603_450" style="mask-type:alpha" maskUnits="userSpaceOnUse" x="0" y="0" width="3000" height="3000">
<rect width="3000" height="3000" fill="#D9D9D9"/>
</mask>
<g mask="url(#mask0_603_450)">
<path fill-rule="evenodd" clip-rule="evenodd" d="M-21300 -11014.3H27235.7V17057.1H-21300V-11014.3ZM2344.44 1381.05H646.037C722.275 987.361 1075.16 689.649 1498.82 689.649C1922.48 689.649 2271.25 983.907 2350.19 1374.14C2350.9 1377.65 2348.14 1380.99 2344.44 1380.99V1381.05ZM1334.1 1515.13C1458.97 1537.59 1589.66 1608.69 1637.41 1728.62H1637.47C1720.05 1932.54 1592.83 2158.92 1477.77 2299.92C1455.98 2326.63 1431.54 2352.25 1406.41 2375.8C1397.89 2383.74 1391.08 2385.01 1382.21 2383.86C957.961 2328.07 630.803 1971.63 630.803 1540.58C630.803 1509.26 632.447 1478.46 635.971 1448.06C689.35 1452.14 742.836 1455.69 796.348 1459.25L796.43 1459.25H796.447C976.428 1471.21 1156.7 1483.19 1334.1 1515.13ZM110.115 1381.06C97.0176 1381.06 95.2559 1389.92 95.2559 1393.32C95.2559 1402.3 100.365 1406.27 108.236 1406.91L635.857 1448.13C638.266 1425.44 641.674 1403.11 645.961 1381.11H110.115V1381.06ZM1465.45 2384.17L2353.24 1434.44C2355.59 1431.9 2359.99 1433.23 2360.41 1436.68C2364.63 1470.77 2366.87 1505.42 2366.87 1540.6C2366.87 2010.57 1978.21 2391.54 1498.81 2391.54C1488.59 2391.54 1478.43 2391.31 1468.33 2390.96C1464.8 2390.85 1463.04 2386.7 1465.45 2384.17Z" fill="white"/>
</g>
</g>
<defs>
<clipPath id="clip0_603_450">
<rect width="3000" height="3000" fill="white"/>
</clipPath>
</defs>
</svg>
