<svg width="500" height="75" viewBox="0 0 500 75" fill="none" xmlns="http://www.w3.org/2000/svg">
<path d="M94.7248 30.0806H24.702C27.8494 13.5229 42.3981 1 59.8599 1C77.3216 1 91.7029 13.3806 94.9592 29.7876C94.9927 29.9383 94.8755 30.0722 94.7248 30.0722M65.5772 44.6963C63.6101 39.6486 58.2192 36.6602 53.071 35.7143C43.5784 33.9731 33.8932 33.6383 24.2918 32.8932C24.1495 34.174 24.0741 35.4715 24.0741 36.7857C24.0741 54.9172 37.5597 69.9095 55.055 72.2534C55.4233 72.3036 55.6995 72.2534 56.0511 71.9185C57.0891 70.9308 58.0936 69.8509 58.9893 68.7292C63.7356 62.7942 68.9758 53.2765 65.5772 44.6963ZM2.61108 30.0806C2.06697 30.0806 2 30.4573 2 30.5912C2 30.9679 2.20927 31.1354 2.53574 31.1605L24.2918 32.8932C24.3922 31.939 24.5345 31.0014 24.7103 30.0722H2.61108V30.0806ZM95.0848 32.324L58.4787 72.2701C58.3782 72.3789 58.4536 72.5547 58.5959 72.5547C59.0144 72.5715 59.433 72.5798 59.8515 72.5798C79.6153 72.5798 95.6372 56.5579 95.6372 36.7857C95.6372 35.3041 95.5452 33.8475 95.3694 32.4161C95.3526 32.2738 95.1685 32.2152 95.0764 32.324M158.628 20.3787C156.896 19.3909 154.803 18.8971 152.342 18.8971H129.782V54.6912H138.89V42.7709H152.015C154.477 42.7709 156.737 42.2854 158.469 41.3144C160.202 40.3434 161.55 38.778 162.521 36.9783C163.492 35.1701 163.978 33.069 163.978 30.675C163.978 28.2809 163.517 26.2551 162.605 24.5056C161.684 22.7561 160.361 21.3748 158.628 20.3871M153.899 34.3414C153.037 35.1953 151.806 35.6222 150.207 35.6222H138.881V25.8784H150.207C151.312 25.8784 152.233 26.0709 152.961 26.4476C153.69 26.8327 154.242 27.3852 154.627 28.1134C155.012 28.8417 155.196 29.7123 155.196 30.7168C155.196 32.2822 154.761 33.4876 153.899 34.3414ZM242.455 40.1341L242.614 39.816C246.356 39.9081 251.931 37.0369 252.341 30.1978C252.467 28.08 251.906 26.163 251.044 24.4386C250.173 22.7226 248.876 21.3665 247.134 20.3787C245.402 19.3909 243.242 18.8971 240.68 18.8971H218.121V54.6912H227.253V42.4026H234.092C236.704 42.4026 239.701 43.3402 241.024 45.7761C242.438 48.3795 244.431 54.6912 244.431 54.6912H254.308C254.308 54.6912 250.985 46.1444 249.286 43.5578C247.201 40.3852 242.463 40.1425 242.463 40.1425M238.646 35.2538H227.245V25.8282H238.646C239.584 25.8282 240.387 26.0207 241.065 26.3974C241.743 26.7825 242.262 27.3015 242.631 27.9628C242.999 28.6241 243.175 29.4361 243.175 30.4071C243.175 31.8636 242.773 33.0356 241.978 33.9229C241.183 34.8102 240.069 35.2538 238.646 35.2538ZM303.194 18.8971H338.587V26.297H325.461V54.6912H316.379V26.2886H303.203V18.8887L303.194 18.8971ZM183.281 18.9138L167.644 54.6828H177.53L180.694 46.6802L193.753 46.6551C196.582 46.6551 197.352 47.5675 198.114 49.4761C198.792 51.1921 200.249 54.6828 200.249 54.6828H210.202L194.598 18.8887L183.281 18.9138ZM183.415 39.6067L188.839 26.0458H189.048L194.423 39.6067H183.415ZM275.78 18.9138L260.143 54.6828H270.029L273.193 46.6802L286.252 46.6551C289.081 46.6551 289.851 47.5675 290.613 49.4761C291.291 51.1921 292.748 54.6828 292.748 54.6828H302.701L287.097 18.8887L275.78 18.9138ZM275.905 39.6067L281.33 26.0458H281.539L286.913 39.6067H275.905ZM354.726 18.9138L339.089 54.6828H348.975L352.139 46.6802L365.198 46.6551C368.027 46.6551 368.806 47.5675 369.559 49.4761C370.237 51.1921 371.694 54.6828 371.694 54.6828H381.647L366.043 18.8887L354.726 18.9138ZM354.851 39.6067L360.267 26.0458H360.485L365.859 39.6067H354.851ZM443.349 18.8971H452.415V54.6912H443.349V18.8971ZM422.271 18.8971L437.874 54.6912H427.921C427.921 54.6912 426.465 51.2005 425.787 49.4844C425.033 47.5759 424.255 46.6551 421.426 46.6634L408.367 46.6885L405.203 54.6912H395.317L410.953 18.9222L422.271 18.8971ZM421.886 39.6067L416.512 26.0458H416.302L410.887 39.6067H421.894H421.886ZM492.737 43.5494C494.437 46.1361 497.76 54.6828 497.76 54.6828H487.882C487.882 54.6828 485.89 48.3711 484.475 45.7677C483.144 43.3402 480.156 42.3943 477.544 42.3859H470.705V54.6744H461.581V18.8971H484.141C486.71 18.8971 488.862 19.3909 490.603 20.3787C492.336 21.3665 493.642 22.7226 494.512 24.4386C495.383 26.1546 495.944 28.08 495.81 30.1978C495.399 37.0369 489.824 39.9165 486.083 39.816L485.924 40.1341C485.924 40.1341 490.661 40.3769 492.746 43.5494M485.43 33.9229C486.225 33.0356 486.627 31.8636 486.627 30.4071C486.627 29.4361 486.443 28.6157 486.083 27.9628C485.714 27.3015 485.195 26.7825 484.517 26.3974C483.839 26.0207 483.036 25.8282 482.098 25.8282H470.697V35.2538H482.098C483.521 35.2538 484.634 34.8102 485.43 33.9229Z" fill="white"/>
</svg>
