<svg width="222" height="33" viewBox="0 0 222 33" fill="none" xmlns="http://www.w3.org/2000/svg">
<path d="M41.9889 13.4794H10.8676C12.2665 6.12043 18.7325 0.554688 26.4933 0.554688C34.2541 0.554688 40.6458 6.05718 42.093 13.3492C42.1079 13.4162 42.0558 13.4757 41.9889 13.4757M29.0344 19.9752C28.1601 17.7318 25.7641 16.4037 23.4761 15.9832C19.2571 15.2094 14.9526 15.0606 10.6853 14.7295C10.622 15.2987 10.5886 15.8754 10.5886 16.4595C10.5886 24.5179 16.5822 31.1811 24.3578 32.2229C24.5215 32.2452 24.6443 32.2228 24.8005 32.074C25.2619 31.635 25.7083 31.1551 26.1064 30.6566C28.2159 28.0188 30.5449 23.7887 29.0344 19.9752ZM1.04942 13.4794C0.807595 13.4794 0.777832 13.6468 0.777832 13.7063C0.777832 13.8738 0.870842 13.9482 1.01594 13.9593L10.6853 14.7295C10.7299 14.3053 10.7932 13.8887 10.8713 13.4757H1.04942V13.4794ZM42.1488 14.4765L25.8795 32.2303C25.8348 32.2787 25.8683 32.3568 25.9315 32.3568C26.1176 32.3642 26.3036 32.3679 26.4896 32.3679C35.2735 32.3679 42.3944 25.2471 42.3944 16.4595C42.3944 15.8009 42.3535 15.1536 42.2753 14.5174C42.2679 14.4542 42.186 14.4281 42.1451 14.4765M70.3905 9.16745C69.6204 8.72844 68.6903 8.50893 67.5965 8.50893H57.5699V24.4174H61.6178V19.1196H67.4514C68.5452 19.1196 69.5497 18.9038 70.3198 18.4722C71.0899 18.0406 71.6889 17.3449 72.1205 16.545C72.5521 15.7414 72.7678 14.8076 72.7678 13.7436C72.7678 12.6795 72.5632 11.7792 72.1577 11.0016C71.7484 10.224 71.1606 9.61017 70.3905 9.17117M68.2885 15.3731C67.9053 15.7526 67.3584 15.9423 66.6478 15.9423H61.614V11.6118H66.6478C67.1389 11.6118 67.5481 11.6973 67.8718 11.8647C68.1954 12.0359 68.441 12.2814 68.6121 12.6051C68.7833 12.9288 68.8651 13.3157 68.8651 13.7622C68.8651 14.4579 68.6717 14.9936 68.2885 15.3731ZM107.647 17.9476L107.717 17.8062C109.38 17.8472 111.858 16.5711 112.041 13.5315C112.096 12.5902 111.847 11.7383 111.464 10.9718C111.077 10.2092 110.5 9.60645 109.726 9.16745C108.956 8.72844 107.996 8.50893 106.858 8.50893H96.8315V24.4174H100.89V18.9559H103.93C105.091 18.9559 106.423 19.3725 107.011 20.4552C107.639 21.6122 108.525 24.4174 108.525 24.4174H112.915C112.915 24.4174 111.438 20.6189 110.683 19.4693C109.756 18.0592 107.65 17.9513 107.65 17.9513M105.954 15.7786H100.887V11.5894H105.954C106.371 11.5894 106.728 11.675 107.029 11.8424C107.33 12.0136 107.561 12.2442 107.725 12.5381C107.889 12.8321 107.967 13.1929 107.967 13.6245C107.967 14.2719 107.788 14.7927 107.435 15.1871C107.081 15.5814 106.586 15.7786 105.954 15.7786ZM134.642 8.50893H150.372V11.7978H144.538V24.4174H140.502V11.7941H134.646V8.50521L134.642 8.50893ZM81.3471 8.51637L74.3974 24.4137H78.7912L80.1975 20.857L86.0014 20.8458C87.2589 20.8458 87.6011 21.2513 87.9397 22.0996C88.241 22.8623 88.8884 24.4137 88.8884 24.4137H93.312L86.3771 8.50521L81.3471 8.51637ZM81.4066 17.7132L83.8175 11.6862H83.9105L86.299 17.7132H81.4066ZM122.458 8.51637L115.508 24.4137H119.902L121.308 20.857L127.112 20.8458C128.369 20.8458 128.712 21.2513 129.05 22.0996C129.352 22.8623 129.999 24.4137 129.999 24.4137H134.423L127.488 8.50521L122.458 8.51637ZM122.513 17.7132L124.924 11.6862H125.017L127.406 17.7132H122.513ZM157.545 8.51637L150.595 24.4137H154.989L156.395 20.857L162.199 20.8458C163.457 20.8458 163.803 21.2513 164.137 22.0996C164.439 22.8623 165.086 24.4137 165.086 24.4137H169.51L162.575 8.50521L157.545 8.51637ZM157.601 17.7132L160.008 11.6862H160.105L162.493 17.7132H157.601ZM196.933 8.50893H200.962V24.4174H196.933V8.50893ZM187.565 8.50893L194.5 24.4174H190.076C190.076 24.4174 189.429 22.866 189.128 22.1033C188.793 21.2551 188.447 20.8458 187.189 20.8495L181.385 20.8607L179.979 24.4174H175.585L182.535 8.52009L187.565 8.50893ZM187.394 17.7132L185.005 11.6862H184.912L182.505 17.7132H187.398H187.394ZM218.883 19.4656C219.639 20.6152 221.116 24.4137 221.116 24.4137H216.726C216.726 24.4137 215.84 21.6085 215.211 20.4515C214.62 19.3725 213.292 18.9521 212.131 18.9484H209.091V24.41H205.036V8.50893H215.062C216.205 8.50893 217.161 8.72844 217.935 9.16745C218.705 9.60645 219.285 10.2092 219.672 10.9718C220.059 11.7345 220.308 12.5902 220.249 13.5315C220.066 16.5711 217.589 17.8509 215.926 17.8062L215.855 17.9476C215.855 17.9476 217.961 18.0555 218.887 19.4656M215.635 15.1871C215.989 14.7927 216.167 14.2719 216.167 13.6245C216.167 13.1929 216.086 12.8283 215.926 12.5381C215.762 12.2442 215.531 12.0136 215.23 11.8424C214.929 11.675 214.571 11.5894 214.155 11.5894H209.088V15.7786H214.155C214.787 15.7786 215.282 15.5814 215.635 15.1871Z" fill="#B6BEC9"/>
</svg>
