<svg width="160" height="24" viewBox="0 0 160 24" fill="none" xmlns="http://www.w3.org/2000/svg">
<g id="logo" clip-path="url(#clip0_121_8415)">
<path id="Vector" d="M30.3126 9.46595H7.90525C8.91245 4.16749 13.568 0.160156 19.1558 0.160156C24.7436 0.160156 29.3456 4.12195 30.3876 9.3722C30.3983 9.42041 30.3608 9.46327 30.3126 9.46327M20.9853 14.143C20.3558 12.5277 18.6308 11.5714 16.9834 11.2687C13.9457 10.7115 10.8465 10.6044 7.774 10.366C7.72846 10.7758 7.70435 11.191 7.70435 11.6116C7.70435 17.4137 12.0197 22.2112 17.6182 22.9612C17.7361 22.9773 17.8245 22.9612 17.937 22.8541C18.2691 22.538 18.5906 22.1924 18.8772 21.8335C20.396 19.9343 22.0729 16.8886 20.9853 14.143ZM0.83617 9.46595C0.662055 9.46595 0.640625 9.58649 0.640625 9.62935C0.640625 9.7499 0.707592 9.80347 0.812062 9.8115L7.774 10.366C7.80614 10.0606 7.85168 9.76061 7.90793 9.46327H0.83617V9.46595ZM30.4277 10.1838L18.7138 22.9666C18.6817 23.0014 18.7058 23.0577 18.7513 23.0577C18.8852 23.063 19.0192 23.0657 19.1531 23.0657C25.4775 23.0657 30.6045 17.9387 30.6045 11.6116C30.6045 11.1375 30.5751 10.6714 30.5188 10.2133C30.5135 10.1678 30.4545 10.149 30.4251 10.1838M50.7617 6.36134C50.2073 6.04526 49.5376 5.88721 48.75 5.88721H41.5309V17.3413H44.4454V13.5269H48.6456C49.4331 13.5269 50.1564 13.3715 50.7108 13.0608C51.2653 12.75 51.6966 12.2491 52.0073 11.6732C52.3181 11.0946 52.4734 10.4222 52.4734 9.65614C52.4734 8.89003 52.3261 8.24179 52.0341 7.68194C51.7395 7.12209 51.3162 6.68011 50.7617 6.36402M49.2483 10.8294C48.9724 11.1026 48.5786 11.2393 48.067 11.2393H44.4427V8.12125H48.067C48.4206 8.12125 48.7152 8.18286 48.9483 8.3034C49.1813 8.42662 49.3581 8.60341 49.4813 8.83646C49.6045 9.06951 49.6635 9.34809 49.6635 9.66953C49.6635 10.1705 49.5242 10.5562 49.2483 10.8294ZM77.5862 12.6831L77.6371 12.5813C78.8345 12.6107 80.6185 11.692 80.7498 9.50346C80.7899 8.82574 80.6105 8.21232 80.3346 7.66051C80.056 7.11138 79.6408 6.67743 79.0836 6.36134C78.5291 6.04526 77.838 5.88721 77.0183 5.88721H69.7992V17.3413H72.7217V13.409H74.9102C75.746 13.409 76.7049 13.709 77.1282 14.4885C77.5809 15.3216 78.2184 17.3413 78.2184 17.3413H81.3793C81.3793 17.3413 80.3158 14.6064 79.772 13.7787C79.105 12.7634 77.5889 12.6857 77.5889 12.6857M76.3674 11.1214H72.719V8.10517H76.3674C76.6674 8.10517 76.9246 8.16678 77.1416 8.28733C77.3585 8.41055 77.5246 8.57662 77.6425 8.78824C77.7603 8.99986 77.8166 9.25969 77.8166 9.57042C77.8166 10.0365 77.688 10.4115 77.4335 10.6955C77.1791 10.9794 76.8228 11.1214 76.3674 11.1214ZM97.0229 5.88721H108.348V8.25518H104.148V17.3413H101.242V8.2525H97.0255V5.88453L97.0229 5.88721ZM58.6505 5.89257L53.6467 17.3386H56.8102L57.8228 14.7778L62.0016 14.7698C62.907 14.7698 63.1534 15.0618 63.3972 15.6725C63.6141 16.2216 64.0802 17.3386 64.0802 17.3386H67.2652L62.2721 5.88453L58.6505 5.89257ZM58.6934 12.5143L60.4292 8.17482H60.4961L62.2159 12.5143H58.6934ZM88.2501 5.89257L83.2463 17.3386H86.4099L87.4224 14.7778L91.6012 14.7698C92.5066 14.7698 92.753 15.0618 92.9968 15.6725C93.2138 16.2216 93.6798 17.3386 93.6798 17.3386H96.8648L91.8717 5.88453L88.2501 5.89257ZM88.2903 12.5143L90.0261 8.17482H90.0931L91.8128 12.5143H88.2903ZM113.513 5.89257L108.509 17.3386H111.673L112.685 14.7778L116.864 14.7698C117.769 14.7698 118.018 15.0618 118.26 15.6725C118.477 16.2216 118.943 17.3386 118.943 17.3386H122.128L117.135 5.88453L113.513 5.89257ZM113.553 12.5143L115.286 8.17482H115.356L117.076 12.5143H113.553ZM141.872 5.88721H144.773V17.3413H141.872V5.88721ZM135.127 5.88721L140.12 17.3413H136.935C136.935 17.3413 136.469 16.2243 136.252 15.6752C136.011 15.0644 135.762 14.7698 134.857 14.7725L130.678 14.7805L129.665 17.3413H126.502L131.506 5.89525L135.127 5.88721ZM135.004 12.5143L133.284 8.17482H133.217L131.484 12.5143H135.007H135.004ZM157.677 13.776C158.22 14.6037 159.284 17.3386 159.284 17.3386H156.123C156.123 17.3386 155.485 15.3189 155.033 14.4858C154.607 13.709 153.651 13.4063 152.815 13.4036H150.626V17.336H147.707V5.88721H154.926C155.748 5.88721 156.436 6.04526 156.994 6.36134C157.548 6.67743 157.966 7.11138 158.244 7.66051C158.523 8.20964 158.703 8.82574 158.66 9.50346C158.528 11.692 156.744 12.6134 155.547 12.5813L155.496 12.6831C155.496 12.6831 157.012 12.7608 157.679 13.776M155.338 10.6955C155.593 10.4115 155.721 10.0365 155.721 9.57042C155.721 9.25969 155.662 8.99718 155.547 8.78824C155.429 8.57662 155.263 8.41055 155.046 8.28733C154.829 8.16678 154.572 8.10517 154.272 8.10517H150.624V11.1214H154.272C154.727 11.1214 155.084 10.9794 155.338 10.6955Z" fill="#B6BEC9"/>
</g>
<defs>
<clipPath id="clip0_121_8415">
<rect width="160" height="24" fill="white"/>
</clipPath>
</defs>
</svg>
