<svg width="214" height="32" viewBox="0 0 214 32" fill="none" xmlns="http://www.w3.org/2000/svg">
<g id="logo" clip-path="url(#clip0_121_8576)">
<path id="Vector" d="M41.0841 12.6211H11.2077C12.5506 5.55649 18.758 0.213379 26.2084 0.213379C33.6587 0.213379 39.7947 5.49577 41.1841 12.4961C41.1984 12.5604 41.1484 12.6175 41.0841 12.6175M28.6478 18.8571C27.8084 16.7034 25.5083 15.4284 23.3118 15.0248C19.2616 14.2819 15.1293 14.139 11.0326 13.8212C10.9719 14.3676 10.9398 14.9212 10.9398 15.482C10.9398 23.218 16.6936 29.6148 24.1583 30.6148C24.3154 30.6362 24.4333 30.6148 24.5833 30.472C25.0262 30.0505 25.4548 29.5898 25.8369 29.1112C27.862 26.5789 30.0978 22.518 28.6478 18.8571ZM1.78221 12.6211C1.55006 12.6211 1.52148 12.7818 1.52148 12.839C1.52148 12.9997 1.61077 13.0711 1.75007 13.0818L11.0326 13.8212C11.0755 13.414 11.1362 13.014 11.2112 12.6175H1.78221V12.6211ZM41.2376 13.5783L25.6191 30.622C25.5762 30.6684 25.6083 30.7434 25.6691 30.7434C25.8476 30.7505 26.0262 30.7541 26.2048 30.7541C34.6373 30.7541 41.4734 23.9181 41.4734 15.482C41.4734 14.8498 41.4341 14.2283 41.3591 13.6176C41.3519 13.5569 41.2734 13.5319 41.2341 13.5783M68.3496 8.48163C67.6103 8.06018 66.7174 7.84945 65.6674 7.84945H56.0419V23.1216H59.9278V18.0357H65.5281C66.5781 18.0357 67.5425 17.8285 68.2818 17.4142C69.0211 16.9999 69.5961 16.332 70.0104 15.5641C70.4247 14.7926 70.6319 13.8962 70.6319 12.8747C70.6319 11.8532 70.4355 10.9889 70.0462 10.2424C69.6533 9.49596 69.089 8.90665 68.3496 8.4852M66.3317 14.4391C65.9638 14.8034 65.4388 14.9855 64.7566 14.9855H59.9242V10.8282H64.7566C65.2281 10.8282 65.6209 10.9103 65.9317 11.071C66.2424 11.2353 66.4781 11.4711 66.6424 11.7818C66.8067 12.0925 66.8853 12.464 66.8853 12.8925C66.8853 13.5604 66.6996 14.0747 66.3317 14.4391ZM104.116 16.9106L104.183 16.7749C105.78 16.8142 108.159 15.5891 108.334 12.6711C108.387 11.7675 108.148 10.9496 107.78 10.2139C107.409 9.48167 106.855 8.90308 106.112 8.48163C105.373 8.06018 104.451 7.84945 103.358 7.84945H93.733V23.1216H97.6296V17.8785H100.548C101.662 17.8785 102.941 18.2785 103.505 19.3179C104.108 20.4286 104.959 23.1216 104.959 23.1216H109.173C109.173 23.1216 107.755 19.475 107.03 18.3714C106.141 17.0177 104.119 16.9142 104.119 16.9142M102.491 14.8284H97.626V10.8067H102.491C102.891 10.8067 103.233 10.8889 103.523 11.0496C103.812 11.2139 104.033 11.4353 104.191 11.7175C104.348 11.9997 104.423 12.3461 104.423 12.7604C104.423 13.3819 104.251 13.8819 103.912 14.2605C103.573 14.6391 103.098 14.8284 102.491 14.8284ZM130.031 7.84945H145.132V11.0067H139.532V23.1216H135.656V11.0032H130.035V7.84588L130.031 7.84945ZM78.868 7.8566L72.1963 23.118H76.4143L77.7644 19.7036L83.3361 19.6929C84.5433 19.6929 84.8718 20.0822 85.1969 20.8965C85.4862 21.6287 86.1076 23.118 86.1076 23.118H90.3543L83.6968 7.84588L78.868 7.8566ZM78.9251 16.6856L81.2395 10.8996H81.3288L83.6218 16.6856H78.9251ZM118.334 7.8566L111.662 23.118H115.88L117.231 19.7036L122.802 19.6929C124.009 19.6929 124.338 20.0822 124.663 20.8965C124.952 21.6287 125.574 23.118 125.574 23.118H129.82L123.163 7.84588L118.334 7.8566ZM118.388 16.6856L120.702 10.8996H120.791L123.084 16.6856H118.388ZM152.018 7.8566L145.346 23.118H149.564L150.914 19.7036L156.486 19.6929C157.693 19.6929 158.025 20.0822 158.347 20.8965C158.636 21.6287 159.258 23.118 159.258 23.118H163.504L156.847 7.84588L152.018 7.8566ZM152.071 16.6856L154.382 10.8996H154.475L156.768 16.6856H152.071ZM189.83 7.84945H193.698V23.1216H189.83V7.84945ZM180.837 7.84945L187.495 23.1216H183.248C183.248 23.1216 182.626 21.6322 182.337 20.9001C182.016 20.0857 181.684 19.6929 180.476 19.6964L174.905 19.7072L173.555 23.1216H169.337L176.008 7.86017L180.837 7.84945ZM180.673 16.6856L178.38 10.8996H178.291L175.98 16.6856H180.676H180.673ZM210.903 18.3678C211.628 19.4714 213.046 23.118 213.046 23.118H208.831C208.831 23.118 207.981 20.425 207.378 19.3143C206.81 18.2785 205.535 17.8749 204.42 17.8714H201.502V23.1145H197.609V7.84945H207.235C208.331 7.84945 209.249 8.06018 209.992 8.48163C210.731 8.90308 211.289 9.48167 211.66 10.2139C212.031 10.946 212.271 11.7675 212.214 12.6711C212.039 15.5891 209.66 16.8177 208.063 16.7749L207.996 16.9106C207.996 16.9106 210.017 17.0142 210.906 18.3678M207.785 14.2605C208.124 13.8819 208.296 13.3819 208.296 12.7604C208.296 12.3461 208.217 11.9961 208.063 11.7175C207.906 11.4353 207.685 11.2139 207.395 11.0496C207.106 10.8889 206.763 10.8067 206.363 10.8067H201.499V14.8284H206.363C206.97 14.8284 207.446 14.6391 207.785 14.2605Z" fill="white"/>
</g>
<defs>
<clipPath id="clip0_121_8576">
<rect width="213.333" height="32" fill="white" transform="translate(0.333984)"/>
</clipPath>
</defs>
</svg>
