<svg width="3000" height="3000" viewBox="0 0 3000 3000" fill="none" xmlns="http://www.w3.org/2000/svg">
<path fill-rule="evenodd" clip-rule="evenodd" d="M646.039 1381.05H2344.44V1380.99C2348.14 1380.99 2350.9 1377.65 2350.19 1374.14C2271.25 983.906 1922.48 689.648 1498.82 689.648C1075.16 689.648 722.278 987.36 646.039 1381.05ZM1334.1 1515.13C1458.98 1537.59 1589.66 1608.69 1637.42 1728.62H1637.47C1720.06 1932.54 1592.84 2158.92 1477.77 2299.92C1455.98 2326.63 1431.55 2352.25 1406.41 2375.8C1397.89 2383.74 1391.08 2385.01 1382.21 2383.86C957.962 2328.07 630.805 1971.63 630.805 1540.58C630.805 1509.26 632.449 1478.46 635.973 1448.06C689.372 1452.14 742.88 1455.69 796.412 1459.25L796.422 1459.25L796.433 1459.25C976.42 1471.21 1156.69 1483.18 1334.1 1515.13ZM110.118 1381.05C97.0199 1381.05 95.2578 1389.92 95.2578 1393.32C95.2578 1402.3 100.368 1406.27 108.238 1406.91L635.86 1448.13C638.268 1425.44 641.675 1403.11 645.963 1381.11H110.118V1381.05ZM1465.45 2384.17L2353.24 1434.44C2355.59 1431.9 2360 1433.23 2360.41 1436.68C2364.64 1470.76 2366.87 1505.42 2366.87 1540.6C2366.87 2010.57 1978.22 2391.54 1498.82 2391.54C1488.6 2391.54 1478.43 2391.31 1468.33 2390.96C1464.81 2390.84 1463.05 2386.7 1465.45 2384.17Z" fill="white"/>
</svg>
