<svg width="558" height="81" viewBox="0 0 558 81" fill="none" xmlns="http://www.w3.org/2000/svg">
<path d="M104.49 33.0994H25.7918C29.3292 14.4904 45.6803 0.416016 65.3054 0.416016C84.9305 0.416016 101.093 14.3304 104.753 32.7701C104.791 32.9395 104.659 33.09 104.49 33.09M71.7311 49.5258C69.5202 43.8527 63.4614 40.4941 57.6755 39.431C47.0069 37.4741 36.1218 37.0978 25.3308 36.2605C25.1709 37.6999 25.0862 39.1581 25.0862 40.6352C25.0862 61.0129 40.2425 77.8626 59.9052 80.4969C60.3192 80.5533 60.6296 80.4969 61.0248 80.1206C62.1914 79.0104 63.3203 77.7968 64.327 76.5361C69.6613 69.8658 75.5507 59.169 71.7311 49.5258ZM0.964127 33.0994C0.352608 33.0994 0.277344 33.5228 0.277344 33.6733C0.277344 34.0966 0.512544 34.2848 0.879455 34.313L25.3308 36.2605C25.4437 35.188 25.6037 34.1343 25.8012 33.09H0.964127V33.0994ZM104.894 35.6207L63.7531 80.5157C63.6402 80.638 63.7249 80.8356 63.8848 80.8356C64.3552 80.8544 64.8256 80.8638 65.296 80.8638C87.5083 80.8638 105.515 62.8569 105.515 40.6352C105.515 38.97 105.412 37.333 105.214 35.7242C105.195 35.5643 104.988 35.4984 104.885 35.6207M176.31 22.1955C174.363 21.0854 172.011 20.5303 169.245 20.5303H143.89V60.7589H154.126V47.3619H168.878C171.644 47.3619 174.184 46.8162 176.132 45.7249C178.079 44.6336 179.594 42.8743 180.685 40.8516C181.776 38.8195 182.322 36.458 182.322 33.7674C182.322 31.0767 181.805 28.7999 180.779 26.8337C179.744 24.8674 178.258 23.3151 176.31 22.2049M170.995 37.8881C170.026 38.8477 168.643 39.3275 166.846 39.3275H154.117V28.3766H166.846C168.088 28.3766 169.123 28.593 169.941 29.0163C170.76 29.4491 171.381 30.07 171.813 30.8885C172.246 31.707 172.453 32.6854 172.453 33.8144C172.453 35.5737 171.964 36.9285 170.995 37.8881ZM270.522 44.3984L270.701 44.0409C274.906 44.1444 281.172 40.9174 281.633 33.2311C281.774 30.8509 281.144 28.6965 280.175 26.7584C279.196 24.8298 277.738 23.3057 275.781 22.1955C273.834 21.0854 271.406 20.5303 268.528 20.5303H243.173V60.7589H253.437V46.948H261.123C264.059 46.948 267.427 48.0017 268.913 50.7394C270.503 53.6653 272.742 60.7589 272.742 60.7589H283.844C283.844 60.7589 280.109 51.1533 278.199 48.2463C275.856 44.6806 270.531 44.4078 270.531 44.4078M266.241 38.9135H253.428V28.3201H266.241C267.295 28.3201 268.198 28.5365 268.96 28.9599C269.722 29.3926 270.306 29.9759 270.72 30.7192C271.134 31.4624 271.331 32.375 271.331 33.4663C271.331 35.1033 270.88 36.4204 269.986 37.4177C269.092 38.4149 267.841 38.9135 266.241 38.9135ZM338.786 20.5303H378.563V28.847H363.812V60.7589H353.604V28.8376H338.796V20.5209L338.786 20.5303ZM204.017 20.5491L186.443 60.7495H197.554L201.11 51.7554L215.786 51.7272C218.966 51.7272 219.832 52.7527 220.688 54.8977C221.45 56.8264 223.087 60.7495 223.087 60.7495H234.273L216.737 20.5209L204.017 20.5491ZM204.167 43.8057L210.264 28.5647H210.499L216.539 43.8057H204.167ZM307.975 20.5491L290.401 60.7495H301.512L305.068 51.7554L319.745 51.7272C322.925 51.7272 323.79 52.7527 324.646 54.8977C325.408 56.8264 327.045 60.7495 327.045 60.7495H338.231L320.695 20.5209L307.975 20.5491ZM308.116 43.8057L314.213 28.5647H314.448L320.488 43.8057H308.116ZM396.702 20.5491L379.128 60.7495H390.239L393.795 51.7554L408.471 51.7272C411.651 51.7272 412.526 52.7527 413.373 54.8977C414.135 56.8264 415.772 60.7495 415.772 60.7495H426.958L409.422 20.5209L396.702 20.5491ZM396.843 43.8057L402.93 28.5647H403.175L409.215 43.8057H396.843ZM496.305 20.5303H506.493V60.7589H496.305V20.5303ZM472.615 20.5303L490.152 60.7589H478.966C478.966 60.7589 477.329 56.8358 476.567 54.9071C475.72 52.7621 474.845 51.7272 471.665 51.7366L456.989 51.7649L453.432 60.7589H442.321L459.896 20.5585L472.615 20.5303ZM472.182 43.8057L466.142 28.5647H465.907L459.82 43.8057H472.192H472.182ZM551.812 48.2369C553.722 51.1439 557.456 60.7495 557.456 60.7495H546.355C546.355 60.7495 544.116 53.6559 542.526 50.73C541.03 48.0017 537.672 46.9386 534.736 46.9291H527.05V60.7401H516.795V20.5303H542.15C545.038 20.5303 547.456 21.0854 549.413 22.1955C551.36 23.3057 552.828 24.8298 553.806 26.7584C554.785 28.687 555.415 30.8509 555.264 33.2311C554.803 40.9174 548.538 44.1538 544.332 44.0409L544.154 44.3984C544.154 44.3984 549.479 44.6712 551.821 48.2369M543.599 37.4177C544.492 36.4204 544.944 35.1033 544.944 33.4663C544.944 32.375 544.737 31.453 544.332 30.7192C543.918 29.9759 543.335 29.3926 542.573 28.9599C541.811 28.5365 540.908 28.3201 539.854 28.3201H527.04V38.9135H539.854C541.454 38.9135 542.705 38.4149 543.599 37.4177Z" fill="#001EE6"/>
</svg>
